<svg xmlns="http://www.w3.org/2000/svg" width="160" height="17" viewBox="0 0 160 17">
    <path fill="#212121" fill-rule="nonzero" d="M19.585 6.793a.35.35 0 0 0-.155-.328c-.69-.459-9.423-6.39-9.454-6.41a.33.33 0 0 0-.367 0C9.58.073.845 6.007.157 6.466a.345.345 0 0 0-.155.328v9.558a.24.24 0 0 0 .11.21c.07.044.158.045.228.001l.087-.05H.44l.033-.023c.3-.197 2.401-1.568 2.9-1.896l.057-.038.048-.03a.382.382 0 0 0 .17-.329V8.601a.335.335 0 0 1 .116-.272l.067-.047L9.62 4.36a.334.334 0 0 1 .175-.056c.062.001.123.02.175.056l5.79 3.922.067.047a.335.335 0 0 1 .118.272v5.595a.382.382 0 0 0 .169.328l3.006 1.966c.02.015.132.079.133.08.07.044.158.044.228 0a.24.24 0 0 0 .11-.21V6.8l-.007-.007zm13.024-1.7a4.661 4.661 0 0 0-1.996.445c-.582.263-1.1.66-1.517 1.163h-.054V1.545a.37.37 0 0 0-.211-.365c-.073-.025-2.271-.675-3.157-.936a.282.282 0 0 0-.248.055.315.315 0 0 0-.115.238v15.839a.36.36 0 0 0 .345.365h3.043a.36.36 0 0 0 .343-.374v-6.39c-.01-.269.034-.538.127-.789.348-.779 1.102-1.265 1.917-1.235a1.935 1.935 0 0 1 1.577.745c.39.49.544 1.142.42 1.768v5.898a.36.36 0 0 0 .343.374h3.15a.36.36 0 0 0 .343-.374v-6.29c0-3.422-1.864-4.984-4.317-4.984l.007.004zm50.565-.003c-1.61-.14-3.2.437-4.387 1.593-1.186 1.155-1.857 2.783-1.852 4.486 0 3.565 2.4 5.824 6.593 5.824 1.42.017 2.834-.194 4.194-.626a.375.375 0 0 0 .202-.447c-.01-.054-.345-1.638-.345-1.638a.369.369 0 0 0-.145-.25.332.332 0 0 0-.271-.057l-.064.013c-.987.248-2 .368-3.015.358-1.79 0-3.355-.7-3.483-2.166h7.624a.38.38 0 0 0 .384-.343c0-.033.01-.067.014-.101a8.21 8.21 0 0 0 .058-.954c.1-1.56-.452-3.087-1.511-4.18-1.059-1.093-2.519-1.643-3.995-1.503l-.001-.009zm-2.597 4.668c.083-1.311 1.124-2.324 2.37-2.307a1.985 1.985 0 0 1 1.586.63c.417.443.632 1.055.589 1.677h-4.549.004zM46.345 5.085c-3.964 0-6.59 2.353-6.59 6.033s2.777 5.87 6.388 5.87c3.309 0 6.516-1.91 6.516-6.08 0-3.424-2.525-5.823-6.314-5.823zm-.1 9.364c-1.643 0-2.525-1.467-2.525-3.423 0-1.68.682-3.424 2.524-3.424 1.741 0 2.45 1.724 2.45 3.424 0 2.048-.96 3.423-2.45 3.423zm23.74-9.364a4.758 4.758 0 0 0-2.351.56 5.098 5.098 0 0 0-1.59 1.374h-.05c-.675-1.285-1.995-2.04-3.384-1.934-1.449-.08-2.844.589-3.739 1.794V5.713a.36.36 0 0 0-.341-.372h-2.703a.36.36 0 0 0-.345.372v10.636a.362.362 0 0 0 .345.374h3.054a.36.36 0 0 0 .338-.374v-6.265c-.01-.303.044-.605.156-.885.289-.776 1-1.285 1.79-1.282 1.214 0 1.768.983 1.768 2.424v6.008a.36.36 0 0 0 .344.374h3.049a.362.362 0 0 0 .345-.374v-6.29c0-.31.053-.616.155-.907.289-.76.993-1.252 1.77-1.235 1.234 0 1.817.955 1.817 2.608v5.824a.36.36 0 0 0 .343.374h3.048a.362.362 0 0 0 .345-.374v-6.334c0-3.403-1.793-4.94-4.166-4.94l.001.01zm73.391 2.576V5.818a.362.362 0 0 0-.343-.37H141.7a.36.36 0 0 0-.339.371v10.527a.362.362 0 0 0 .342.374h1.512a.36.36 0 0 0 .343-.372V10.72c.005-.32.039-.64.1-.953.237-1.536 1.506-2.657 2.982-2.631.13 0 .247 0 .357.01a.334.334 0 0 0 .284-.087.375.375 0 0 0 .117-.287V5.611a.609.609 0 0 0-.014-.123.336.336 0 0 0-.284-.268 2.118 2.118 0 0 0-.336-.018c-1.505 0-2.852.983-3.383 2.469l-.005-.01zm-19.919-2.46c-1.603-.08-3.132.722-4.038 2.12V5.827a.376.376 0 0 0-.1-.26.338.338 0 0 0-.244-.11h-1.357a.338.338 0 0 0-.247.108.376.376 0 0 0-.1.262V16.36c0 .202.151.367.342.373h1.538a.36.36 0 0 0 .343-.372V9.953c-.004-.326.048-.65.155-.955.477-1.29 1.668-2.128 2.98-2.096a2.65 2.65 0 0 1 2.172.95c.55.647.792 1.523.656 2.381v6.126a.362.362 0 0 0 .345.374h1.535a.36.36 0 0 0 .343-.374v-6.358a4.502 4.502 0 0 0-1.11-3.448c-.83-.923-2.002-1.416-3.206-1.351h-.007zM98.12 6.858a6.066 6.066 0 0 1 2.156.347l.038.015c.087.051.191.06.286.025a.358.358 0 0 0 .208-.209l.285-.891a.375.375 0 0 0-.222-.462l-.035-.013a8.522 8.522 0 0 0-2.72-.436c-3.988 0-6.565 2.515-6.565 5.985s2.399 5.777 6.086 5.777a9.148 9.148 0 0 0 3.217-.552.383.383 0 0 0 .207-.472l-.008-.031s-.186-.756-.197-.793a.327.327 0 0 0-.155-.22.296.296 0 0 0-.26-.02l-.03.014a6.594 6.594 0 0 1-2.371.42c-1.496.081-2.911-.718-3.674-2.077a4.446 4.446 0 0 1 .038-4.397c.787-1.343 2.216-2.115 3.71-2.004l.006-.006zm36.435-3.68a.316.316 0 0 0-.12-.26.281.281 0 0 0-.272-.042l-.053.015-1.437.42a.37.37 0 0 0-.29.374v1.78h-1.553a.359.359 0 0 0-.342.372v.819a.358.358 0 0 0 .342.37h1.553v6.15a3.954 3.954 0 0 0 .859 2.935c.658.617 1.52.935 2.398.885a6.328 6.328 0 0 0 1.68-.208c.159-.04.271-.19.27-.362v-.076l-.048-.755a.377.377 0 0 0-.109-.26.338.338 0 0 0-.252-.1 6.298 6.298 0 0 1-.958.059c-1.243 0-1.665-.792-1.665-2.188V7.02h2.835c.092 0 .18-.04.245-.109.064-.07.1-.163.1-.26v-.82a.36.36 0 0 0-.345-.371h-2.84V3.165l.002.012zm-20.506 7.985c0-.024 0-.057.01-.083.02-.19.03-.38.03-.57.083-1.437-.422-2.842-1.388-3.858-.967-1.017-2.3-1.546-3.662-1.454-1.546-.075-3.05.543-4.142 1.7-1.092 1.158-1.67 2.748-1.59 4.378 0 3.402 2.248 5.708 6.008 5.708a11.408 11.408 0 0 0 3.263-.439c.192-.055.365-.113.514-.164a.342.342 0 0 0 .191-.18.372.372 0 0 0 .014-.272l-.008-.028s-.188-.722-.196-.757a.325.325 0 0 0-.158-.212.296.296 0 0 0-.255-.015.15.15 0 0 0-.03.01c-.024.01-.05.016-.07.022a8.848 8.848 0 0 1-2.952.43 3.58 3.58 0 0 1-2.944-.948 4.007 4.007 0 0 1-1.25-2.966h8.268a.353.353 0 0 0 .354-.3l-.007-.002zm-2.099-1.165h-6.5c.143-1.876 1.624-3.324 3.409-3.332a2.815 2.815 0 0 1 2.27.915c.594.641.89 1.525.81 2.417h.011zm48 1.167c0-.025 0-.057.011-.084.02-.19.03-.38.03-.57.084-1.437-.422-2.842-1.388-3.858-.966-1.017-2.3-1.546-3.662-1.453-1.546-.075-3.05.542-4.142 1.7-1.092 1.157-1.67 2.747-1.59 4.378 0 3.401 2.248 5.708 6.01 5.708a11.402 11.402 0 0 0 3.262-.44c.194-.055.367-.112.513-.163a.34.34 0 0 0 .192-.18.37.37 0 0 0 .013-.272v-.028s-.19-.722-.198-.757a.325.325 0 0 0-.158-.214.296.296 0 0 0-.258-.014l-.028.01a8.857 8.857 0 0 1-3.023.452 3.578 3.578 0 0 1-2.944-.946 4.006 4.006 0 0 1-1.25-2.968h8.269a.351.351 0 0 0 .352-.3l-.01-.001zm-2.095-1.165h-6.488c.142-1.876 1.623-3.325 3.408-3.333a2.815 2.815 0 0 1 2.27.915c.594.642.89 1.526.81 2.418z"/>
</svg>
