<?xml version="1.0" encoding="UTF-8"?>
<svg width="201px" height="21px" viewBox="0 0 201 21" version="1.1" xmlns="http://www.w3.org/2000/svg" xmlns:xlink="http://www.w3.org/1999/xlink">
    <!-- Generator: Sketch 40.3 (33839) - http://www.bohemiancoding.com/sketch -->
    <title>Home Centre</title>
    <desc>Created with Sketch.</desc>
    <defs></defs>
    <g id="Page-1" stroke="none" stroke-width="1" fill="none" fill-rule="evenodd">
        <g id="Home-Centre" fill="#C3D500">
            <path d="M24.5640698,8.22012121 C24.5794205,8.06105168 24.5037036,7.90712018 24.3693023,7.82416162 C23.5045349,7.26981818 12.5547093,0.102949495 12.5157558,0.0791919192 C12.3752273,-0.0104466063 12.1966331,-0.0104466063 12.0561047,0.0791919192 C12.0171512,0.098989899 1.06732558,7.26981818 0.204505814,7.82416162 C0.0690043615,7.90608533 -0.00708694081,8.06077793 0.00973837209,8.22012121 L0.00973837209,19.7702626 C0.00709341901,19.8743386 0.0600899838,19.971713 0.148235094,20.0247325 C0.236380204,20.077752 0.345856594,20.0781056 0.434331395,20.0256566 L0.543401163,19.9642828 C0.548551313,19.9652508 0.553832408,19.9652508 0.558982558,19.9642828 L0.599883721,19.9365657 L0.599883721,19.9365657 C0.977732558,19.6989899 3.61098837,18.041899 4.23619186,17.6459394 L4.30825581,17.600404 L4.36863372,17.5627879 C4.50323905,17.4781862 4.5839407,17.3276675 4.58093023,17.1668283 L4.58093023,16.8936162 L4.58093023,10.4058182 C4.5748696,10.2787796 4.62921341,10.1565148 4.72700581,10.0771717 L4.81075581,10.0197576 L12.0697384,5.28012121 C12.1358236,5.23800199 12.2118478,5.21475016 12.2898256,5.21280808 C12.3678808,5.21425214 12.4440333,5.23754321 12.5099128,5.28012121 L19.7688953,10.0197576 L19.8526453,10.0771717 C19.9511673,10.1561026 20.006265,10.2784325 20.0006686,10.4058182 L20.0006686,17.1668283 C19.9976581,17.3276675 20.0783598,17.4781862 20.2129651,17.5627879 L23.9817151,19.9385455 C24.0070349,19.9563636 24.1472674,20.0335758 24.1492151,20.0355556 C24.2376899,20.0880046 24.3471663,20.087651 24.4353114,20.0346315 C24.5234565,19.9816119 24.5764531,19.8842376 24.5738081,19.7801616 L24.5738081,8.2300202 L24.5640698,8.22012121 Z M40.8933721,6.16707071 C40.0312342,6.16453576 39.1783169,6.34737846 38.3906105,6.70359596 C37.6616355,7.02194479 37.0120853,7.50225936 36.4896802,8.10925253 L36.4215116,8.10925253 L36.4215116,1.87882828 C36.4354985,1.68914928 36.3289305,1.51152703 36.1566279,1.43733333 C36.0650872,1.40763636 33.3091279,0.621656566 32.1989535,0.306868687 C32.0906456,0.279844764 31.9761247,0.304188603 31.8875463,0.373064893 C31.7989678,0.441941182 31.7458832,0.547922989 31.7431977,0.661252525 L31.7431977,19.7999596 C31.7452944,20.0421329 31.9373493,20.2382348 32.1755814,20.2414545 L35.9910756,20.2414545 C36.2323457,20.2371162 36.4247668,20.0353261 36.4215116,19.7900606 L36.4215116,12.0688485 C36.4097594,11.7429906 36.4641241,11.4181619 36.5812209,11.1145859 C37.016727,10.1733249 37.9619611,9.58624115 38.9846512,9.62181818 C39.744637,9.59803674 40.4733374,9.93003245 40.9615923,10.522512 C41.4498472,11.1149915 41.6436646,11.9024376 41.4874128,12.6588283 L41.4874128,19.786101 C41.4841576,20.0313666 41.6765787,20.2331566 41.9178488,20.2374949 L45.8677326,20.2374949 C46.1090027,20.2331566 46.3014238,20.0313666 46.2981686,19.786101 L46.2981686,12.1856566 C46.2981686,8.04985859 43.9609593,6.16311111 40.8855814,6.16311111 L40.8933721,6.16707071 Z M104.29407,6.16311111 C102.276517,5.99276193 100.281226,6.69080254 98.7941551,8.08722363 C97.3070842,9.48364472 96.4647153,11.4502838 96.4722093,13.5081616 C96.4722093,17.816202 99.4813663,20.5463434 104.73814,20.5463434 C106.518596,20.5661995 108.291702,20.3112003 109.99686,19.7900606 C110.205523,19.7029846 110.315078,19.4691261 110.250058,19.2495758 C110.238372,19.1842424 109.817674,17.2697778 109.817674,17.2697778 C109.800911,17.1482174 109.735118,17.0392386 109.636085,16.9689981 C109.537053,16.8987577 109.413724,16.8735971 109.295698,16.8995556 L109.215843,16.9153939 C107.977579,17.2145649 106.708108,17.3594949 105.435407,17.3469899 C103.189738,17.3469899 101.22843,16.5016162 101.068721,14.729697 L110.627907,14.729697 C110.869374,14.7388962 111.077941,14.5595064 111.108983,14.3159192 C111.108983,14.2763232 111.122616,14.2347475 111.126512,14.1931717 C111.173708,13.8109519 111.197774,13.4261473 111.198576,13.0409293 C111.324471,11.1566569 110.632374,9.31083252 109.304617,7.98973886 C107.976861,6.6686452 106.1466,6.00476956 104.296017,6.1730101 L104.29407,6.16311111 Z M101.037558,11.8035556 C101.141979,10.2190966 102.447608,8.99455857 104.009709,9.016 C104.749831,8.96524861 105.475244,9.24317433 105.998282,9.77787684 C106.521319,10.3125794 106.790598,11.0515285 106.736453,11.8035556 L101.033663,11.8035556 L101.037558,11.8035556 Z M58.116657,6.15717172 C53.1461919,6.15717172 49.8526744,9.00016162 49.8526744,13.4467879 C49.8526744,17.8934141 53.3351163,20.540404 57.8634593,20.540404 C62.0120058,20.540404 66.0339535,18.2319596 66.0339535,13.1933737 C66.0339535,9.05559596 62.8670349,6.15717172 58.116657,6.15717172 L58.116657,6.15717172 Z M57.9900581,17.4717172 C55.9313663,17.4717172 54.8250872,15.699798 54.8250872,13.3359192 C54.8250872,11.3066263 55.6801163,9.19814141 57.9900581,9.19814141 C60.1734012,9.19814141 61.0615407,11.2808889 61.0615407,13.3359192 C61.0615407,15.8106667 59.8578779,17.4717172 57.9900581,17.4717172 L57.9900581,17.4717172 Z M87.7563663,6.15717172 C86.7344889,6.13317596 85.7224894,6.36502231 84.8095349,6.83228283 C84.0393185,7.24049105 83.3603331,7.80598376 82.8151163,8.49333333 L82.7527907,8.49333333 C81.9073214,6.94100755 80.2517719,6.02926795 78.5107558,6.15717172 C76.6937012,6.05899758 74.9438156,6.86819078 73.8227035,8.32505051 L73.8227035,6.91543434 C73.824894,6.67169342 73.6339522,6.47142672 73.3942151,6.4660202 L70.0052616,6.4660202 C69.7639953,6.46928055 69.5707118,6.67017697 69.5728779,6.91543434 L69.5728779,10.8591919 L69.5728779,19.7682828 L69.5728779,19.7682828 C69.570702,20.0138733 69.7636839,20.2153398 70.0052616,20.2196768 L70.0052616,20.2196768 L73.8343895,20.2196768 C74.0733611,20.212139 74.2622854,20.0112896 74.2589826,19.7682828 L74.2589826,12.1975354 C74.2471705,11.8310545 74.3136174,11.4663233 74.45375,11.1284444 C74.8161012,10.190349 75.7079637,9.57469757 76.6994186,9.57826263 C78.2205523,9.57826263 78.9158721,10.7661414 78.9158721,12.5083636 L78.9158721,19.7682828 C78.9126169,20.0135484 79.105038,20.2153384 79.3463081,20.2196768 L83.169593,20.2196768 C83.4111707,20.2153398 83.6041526,20.0138733 83.6019767,19.7682828 L83.6019767,12.1678384 C83.6030668,11.7934495 83.6689956,11.4221795 83.7967442,11.0710303 C84.1582876,10.1524404 85.0420298,9.55776811 86.0151453,9.57826263 C87.5635465,9.57826263 88.2939244,10.7324848 88.2939244,12.730101 L88.2939244,19.7682828 C88.2906692,20.0135484 88.4830903,20.2153384 88.7243605,20.2196768 L92.5456977,20.2196768 C92.7872754,20.2153398 92.9802573,20.0138733 92.9780814,19.7682828 L92.9780814,12.1143838 C92.9780814,8.00234343 90.7304651,6.14529293 87.7544186,6.14529293 L87.7563663,6.15717172 Z M179.77814,9.26941414 L179.77814,7.04214141 C179.778198,6.79884499 179.586994,6.60008973 179.347703,6.59470707 L177.676599,6.59470707 C177.438393,6.60223313 177.249772,6.8018807 177.252006,7.04412121 L177.252006,7.04412121 L177.252006,10.8433535 L177.252006,19.7643232 C177.249796,20.0084051 177.440447,20.2092472 177.680494,20.2157172 L179.575581,20.2157172 C179.816083,20.2113804 180.008193,20.0108002 180.006017,19.766303 L180.006017,19.766303 L180.006017,12.9676768 C180.012469,12.5804033 180.054857,12.1946125 180.132616,11.8154343 C180.428467,9.95895772 182.020295,8.60479362 183.870203,8.63587879 C184.033808,8.63587879 184.179884,8.63587879 184.318169,8.64775758 C184.446346,8.66854606 184.576953,8.62997247 184.674215,8.54260218 C184.771477,8.45523189 184.8252,8.32822307 184.820669,8.19636364 L184.820669,6.79268687 C184.820067,6.74269708 184.81419,6.69291719 184.80314,6.64420202 C184.764446,6.46987996 184.621408,6.33957851 184.446715,6.31951515 C184.30722,6.30152386 184.166589,6.29424398 184.026017,6.29773737 C182.139,6.29808898 180.449464,7.48639187 179.783983,9.28129293 L179.77814,9.26941414 Z M154.80311,6.29773737 C152.792655,6.20079891 150.87631,7.16953029 149.739157,8.85761616 L149.739157,7.0540202 C149.740716,6.93658609 149.696179,6.82336033 149.6154,6.73939064 C149.53462,6.65542095 149.424256,6.60762848 149.308721,6.60658586 L147.606453,6.60658586 C147.490242,6.60657517 147.378873,6.65390411 147.29725,6.73798952 C147.215627,6.82207493 147.170559,6.93590278 147.172122,7.0540202 L147.172122,10.2949495 L147.172122,19.7821414 C147.170979,20.0254555 147.361326,20.2250986 147.60061,20.2315556 L149.528808,20.2315556 C149.76931,20.2272188 149.96142,20.0266385 149.959244,19.7821414 L149.959244,12.0391515 C149.953841,11.6455139 150.019867,11.2542359 150.154012,10.8849293 C150.751055,9.32598773 152.244336,8.31378393 153.889651,8.35276768 C154.921753,8.29531005 155.923694,8.71731559 156.613346,9.49995574 C157.302999,10.2825959 157.605755,11.3412041 157.436366,12.377697 L157.436366,19.7801616 C157.43419,20.025752 157.627172,20.2272186 157.86875,20.2315556 L159.793052,20.2315556 C160.034322,20.2272172 160.226744,20.0254272 160.223488,19.7801616 L160.223488,12.0965657 C160.380286,10.5677065 159.871364,9.04562314 158.830534,7.9305195 C157.789703,6.81541587 156.321113,6.21887172 154.810901,6.29773737 L154.80311,6.29773737 Z M123.034593,8.29733333 C123.952756,8.27818579 124.867288,8.42017317 125.737965,8.71705051 L125.784709,8.73486869 C125.894425,8.79699416 126.02509,8.80828486 126.143548,8.76587577 C126.262005,8.72346669 126.35687,8.63143412 126.40407,8.51313131 L126.762442,7.43612121 C126.834442,7.20399387 126.710698,6.95594097 126.483924,6.87781818 L126.439128,6.8619798 C125.335835,6.50880263 124.185451,6.33116183 123.02875,6.33535354 C118.02907,6.33535354 114.797878,9.37434343 114.797878,13.5675556 C114.797878,17.7607677 117.805087,20.5483232 122.428866,20.5483232 C123.800995,20.561263 125.165198,20.3356141 126.4625,19.8811313 C126.684605,19.7916891 126.79858,19.5408167 126.721541,19.3109495 L126.711802,19.2733333 C126.711802,19.2733333 126.478081,18.3606465 126.464448,18.3151111 C126.441135,18.2016453 126.37008,18.1042614 126.270028,18.048649 C126.169976,17.9930366 126.050976,17.9847812 125.944419,18.0260606 L125.907413,18.041899 C124.952769,18.3860816 123.94619,18.5576167 122.933314,18.5487273 C121.058191,18.6482188 119.283671,17.6816373 118.326682,16.039493 C117.369692,14.3973487 117.388369,12.3509939 118.375165,10.7271798 C119.361962,9.1033657 121.153818,8.17041573 123.026802,8.30525253 L123.034593,8.29733333 Z M168.717297,3.85070707 C168.721053,3.72721626 168.664598,3.60980079 168.566435,3.53694406 C168.468272,3.46408732 168.341056,3.44518195 168.226483,3.48642424 L168.160262,3.50424242 L166.358663,4.01107071 C166.32681,4.01856752 166.295559,4.02849464 166.265174,4.04076768 C166.097932,4.11103049 165.990377,4.27856231 165.994448,4.46246465 L165.994448,6.61450505 L164.046773,6.61450505 C163.806579,6.61884325 163.61503,6.81974697 163.618285,7.06391919 L163.618285,8.05381818 C163.616109,8.29722201 163.807347,8.4969159 164.046773,8.50125253 L165.994448,8.50125253 L165.994448,15.9334141 C165.848575,17.216572 166.239347,18.5030398 167.071512,19.4792323 C167.895977,20.2247935 168.976839,20.6090498 170.078721,20.5483232 C170.788194,20.5558248 171.495712,20.4713318 172.184157,20.2968889 C172.383936,20.2496362 172.524743,20.0678455 172.523052,19.8593535 L172.523052,19.7682828 L172.462674,18.855596 C172.460658,18.7365627 172.411644,18.623352 172.32666,18.541434 C172.241675,18.4595161 172.127858,18.4157709 172.010814,18.4200404 C171.976796,18.4212426 171.942928,18.4252149 171.909535,18.4319192 C171.544416,18.4764024 171.176799,18.4962439 170.809099,18.4913131 C169.250959,18.4913131 168.721192,17.5350707 168.721192,15.8482828 L168.721192,8.49333333 L172.275698,8.49333333 C172.39123,8.49281144 172.501796,8.44552175 172.58294,8.36192464 C172.664085,8.27832753 172.709119,8.1653127 172.708081,8.04787879 L172.708081,7.0579798 C172.710247,6.81272242 172.516964,6.611826 172.275698,6.60856566 L168.715349,6.60856566 L168.715349,3.83684848 L168.717297,3.85070707 Z M143.006047,13.5002424 C143.006047,13.4705455 143.006047,13.4309495 143.01968,13.3992727 C143.043595,13.1704102 143.055946,12.9404516 143.056686,12.710303 C143.161356,10.9744218 142.527305,9.27649137 141.315826,8.0484403 C140.104347,6.82038924 138.432215,6.18058994 136.724797,6.29179798 C134.785989,6.20154605 132.899843,6.94775794 131.531176,8.34653906 C130.16251,9.74532019 129.438612,11.6665801 129.537878,13.6368485 C129.537878,17.7469091 132.356163,20.5344646 137.071483,20.5344646 C138.452354,20.5493381 139.828661,20.3707983 141.161599,20.0038788 L141.161599,20.0038788 C141.40311,19.9365657 141.619302,19.8672727 141.806279,19.805899 C141.911764,19.7682411 141.998163,19.6894519 142.046401,19.5869289 C142.094638,19.484406 142.100744,19.3665823 142.063372,19.2594747 L142.053634,19.2258182 C142.053634,19.2258182 141.817965,18.3527273 141.808227,18.3111515 C141.781559,18.2007225 141.709473,18.1072769 141.610331,18.0546148 C141.511188,18.0019528 141.394558,17.9951575 141.290145,18.0359596 C141.277452,18.038657 141.265055,18.0426364 141.25314,18.0478384 C141.221977,18.0597172 141.190814,18.0676364 141.163547,18.0755556 C139.965472,18.4495507 138.715904,18.6247016 137.462965,18.5942626 C136.127443,18.7745541 134.780679,18.3568273 133.771694,17.449338 C132.76271,16.5418488 132.190824,15.2339265 132.204244,13.8645253 L142.571715,13.8645253 C142.787554,13.8721297 142.976385,13.7180687 143.015785,13.5022222 L143.006047,13.5002424 Z M140.374738,12.0926061 L132.225669,12.0926061 C132.403848,9.82532781 134.261289,8.07494129 136.498866,8.06569697 C137.561537,7.99182848 138.60251,8.39605597 139.346064,9.17131243 C140.089618,9.94656889 140.46073,11.0146321 140.361105,12.0926061 L140.374738,12.0926061 Z M200.559826,13.5022222 C200.559826,13.4725253 200.559826,13.4329293 200.573459,13.4012525 C200.597189,13.172375 200.60954,12.942426 200.610465,12.7122828 C200.715781,10.9762267 200.081938,9.27790504 198.870309,8.04970225 C197.65868,6.82149946 195.986164,6.18191274 194.278576,6.29377778 C192.339768,6.20352585 190.453622,6.94973774 189.084956,8.34851886 C187.716289,9.74729998 186.992391,11.6685599 187.091657,13.6388283 C187.091657,17.7488889 189.909942,20.5364444 194.627209,20.5364444 C196.008087,20.5514187 197.384407,20.3728771 198.717326,20.0058586 L198.717326,20.0058586 C198.960785,19.9385455 199.176977,19.8692525 199.360058,19.8078788 C199.465867,19.7706692 199.55261,19.6919381 199.600917,19.5892673 C199.649224,19.4865964 199.65507,19.3685375 199.617151,19.2614545 L199.617151,19.227798 C199.617151,19.227798 199.379535,18.3547071 199.369797,18.3131313 C199.343312,18.2016992 199.270616,18.1074041 199.170503,18.0546231 C199.070389,18.0018422 198.952685,17.9957565 198.84782,18.0379394 L198.812762,18.0498182 C198.783377,18.0605888 198.753474,18.0698397 198.723169,18.0775354 C197.52505,18.4513276 196.275514,18.6264739 195.022587,18.5962424 C193.686933,18.7772199 192.339786,18.3597361 191.330637,17.4520989 C190.321487,16.5444617 189.749792,15.2361228 189.763866,13.8665051 L200.131337,13.8665051 C200.34673,13.8739646 200.534926,13.7197445 200.573459,13.504202 L200.559826,13.5022222 Z M197.932413,12.0945859 L189.796977,12.0945859 C189.975156,9.8273076 191.832597,8.07692109 194.070174,8.06767677 C195.132845,7.99380828 196.173818,8.39803576 196.917372,9.17329223 C197.660926,9.94854869 198.032038,11.0166119 197.932413,12.0945859 L197.932413,12.0945859 Z" id="Home_Centre"></path>
        </g>
    </g>
</svg>